<svg xmlns="http://www.w3.org/2000/svg" width="81.932" height="149.658" viewBox="0 0 81.932 149.658">
  <g id="Group_6998" data-name="Group 6998" transform="translate(-903.284 -205.572)">
    <path id="Path_118" data-name="Path 118" d="M978.819,304.757c0-.12,0-.24,0-.363,0-.276-.006-.562-.011-.854,0-.1,0-.2,0-.308q-.021-1.211-.07-2.582c0-.112-.009-.227-.014-.34-.013-.347-.028-.7-.045-1.061-.007-.145-.014-.292-.021-.439q-.026-.524-.057-1.066c-.008-.149-.017-.3-.026-.45q-.036-.6-.079-1.225c-.008-.113-.014-.222-.023-.336q-.114-1.618-.276-3.364c-.012-.122-.024-.248-.036-.371q-.065-.68-.138-1.376-.027-.256-.055-.514-.071-.655-.15-1.325c-.021-.176-.041-.351-.063-.528q-.089-.731-.187-1.478c-.017-.132-.034-.262-.051-.4q-.258-1.92-.583-3.932c-.024-.147-.05-.3-.074-.444q-.127-.772-.265-1.554c-.036-.2-.072-.4-.109-.6q-.132-.731-.275-1.47c-.04-.207-.079-.414-.12-.623q-.156-.792-.324-1.593c-.035-.166-.068-.33-.1-.5q-.449-2.11-.983-4.276c-.049-.2-.1-.395-.15-.592q-.2-.778-.4-1.561-.1-.371-.2-.744-.2-.723-.4-1.451c-.074-.261-.148-.521-.224-.783-.145-.5-.3-1-.448-1.5-.073-.239-.144-.477-.219-.717q-.322-1.033-.666-2.071c-.014-.043-.027-.085-.041-.128h0A64.439,64.439,0,0,0,925.129,217.8c2.912.4,6.238.989,9.789,1.83l.113.027q1.733.412,3.531.91l.148.042q.825.23,1.66.48l.17.051q1.768.533,3.569,1.159l.314.11q1.773.625,3.56,1.346l.33.136q.751.308,1.5.635l.324.14q.881.388,1.759.8l.218.105q.758.361,1.512.742l.434.22q.8.41,1.589.841l.128.069q.843.464,1.678.958c.145.086.289.173.434.26q.661.4,1.315.811c.133.084.267.167.4.253q.811.523,1.609,1.073c.109.076.217.154.326.231q.647.454,1.285.928c.156.116.311.232.466.349q.7.535,1.4,1.094c.055.044.11.086.165.131.5.411,1,.834,1.487,1.266.147.129.291.26.437.391q.566.51,1.12,1.038c.128.122.257.242.384.366q.7.685,1.383,1.4c.109.116.216.235.325.352q.537.577,1.058,1.175c.137.157.273.314.408.473q.606.713,1.189,1.453c.037.047.075.092.112.139.415.534.818,1.083,1.213,1.64.12.169.238.34.356.511q.458.664.9,1.349c.1.15.2.3.29.45q.552.883,1.071,1.8c.083.147.162.3.243.446q.41.744.8,1.512c.1.189.191.378.284.569.317.65.625,1.308.917,1.983l.012.027h0a74.246,74.246,0,0,1-.068,57.092c0-.1.006-.213.01-.32,0-.076,0-.147.007-.226.007-.241.013-.495.018-.768,0-.012,0-.027,0-.039.005-.26.009-.536.012-.823,0-.087,0-.178,0-.267,0-.225,0-.456,0-.7,0-.11,0-.223,0-.336q0-.354,0-.728m-.706,1.151c0,.207,0,.412,0,.607q0,.186,0,.365,0,.267-.008.518c0,.115,0,.232-.006.342,0,.167-.007.324-.011.478,0,.089,0,.183-.007.267-.005.2-.012.387-.018.564,0,.088-.006.169-.009.251-.005.129-.01.258-.015.372,0,.078-.006.146-.01.216s-.007.157-.011.226-.007.142-.011.2l-.007.127c0,.063-.007.125-.01.174l0,.039c0,.052-.006.1-.008.13a74.271,74.271,0,0,1-64.131,43.644c-1.275.059-2.421.088-3.5.088-1.419,0-2.857-.046-4.35-.138l.093-.024c.259-.065.531-.134.828-.211l.115-.03q.431-.113.911-.244l.15-.041c.338-.093.7-.193,1.066-.3l.228-.065q.562-.162,1.168-.344l.241-.073c.425-.129.862-.263,1.317-.407l.105-.034c.442-.14.9-.289,1.367-.444l.226-.074c.476-.159.966-.326,1.466-.5l.311-.109q.755-.265,1.543-.552l.285-.105c.553-.2,1.114-.414,1.689-.636l.068-.027c.561-.217,1.135-.445,1.715-.679l.3-.122q.857-.349,1.74-.725l.37-.158q.891-.383,1.8-.79l.3-.138q.922-.417,1.861-.86l.113-.053c.641-.3,1.289-.621,1.94-.946l.357-.178q.944-.474,1.9-.978l.4-.212q.97-.516,1.949-1.06l.294-.166q.963-.542,1.932-1.112l.188-.11c.667-.4,1.334-.8,2-1.221l.384-.24q.976-.615,1.951-1.262l.4-.265q.995-.668,1.986-1.366c.082-.057.162-.117.244-.175q.963-.687,1.919-1.405c.079-.059.158-.116.236-.176.654-.5,1.3-1.006,1.952-1.525.127-.1.254-.2.38-.306q.952-.772,1.89-1.579l.359-.312c.642-.559,1.281-1.128,1.911-1.713.058-.053.114-.108.171-.162q.917-.855,1.815-1.748c.083-.082.167-.163.25-.246q.908-.911,1.792-1.862c.115-.123.229-.246.343-.37q.872-.948,1.717-1.933c.1-.116.2-.234.3-.352.583-.689,1.158-1.388,1.719-2.1l.078-.1q.825-1.058,1.615-2.161c.077-.107.156-.213.233-.322q.776-1.092,1.514-2.227.142-.218.284-.438.731-1.139,1.424-2.319c.074-.126.146-.254.219-.381.48-.833.949-1.676,1.4-2.54a.3.3,0,0,0,.018-.042c.812-1.5,1.554-3,2.206-4.455a63.75,63.75,0,0,0,5.588-26.207,64.892,64.892,0,0,0-.546-8.407q.175.716.341,1.427c.028.119.057.239.084.357q.245,1.067.468,2.119c.032.149.06.3.091.444q.171.817.331,1.625c.045.226.087.449.129.673q.133.695.258,1.381.064.351.125.7.119.678.23,1.348c.036.219.073.44.109.657q.119.737.227,1.461c.024.16.05.322.073.482q.143.97.271,1.919c.006.046.012.091.018.138q.115.866.217,1.712c.023.187.043.37.065.555.049.421.1.84.142,1.253.023.207.044.413.066.619q.061.585.116,1.159c.019.2.038.4.057.593.037.4.071.793.1,1.183.014.164.029.33.042.492.042.52.081,1.032.117,1.533l.005.068c.038.533.071,1.053.1,1.563.008.136.015.267.022.4.02.362.04.721.057,1.072.008.171.016.339.024.507.014.31.027.616.039.916.007.164.013.327.018.488.011.3.02.593.029.881,0,.146.009.294.013.436.009.326.015.642.021.953,0,.088,0,.181.006.269q.01.592.014,1.143c0,.094,0,.181,0,.274,0,.268,0,.532,0,.785,0,.127,0,.247,0,.37m-72.648,47.877-.232.056-.443.105-.054.012,4.066-4.13,5.215-5.3a64.477,64.477,0,0,0,38.37-15.587c-.1.092-.194.182-.29.274q-.55.522-1.107,1.031-.28.255-.562.508-.571.511-1.147,1.008c-.135.116-.268.235-.4.35q-.727.619-1.462,1.215c-.2.165-.406.327-.609.49q-.5.4-1.012.8c-.2.155-.4.312-.6.465q-.727.554-1.459,1.089c-.2.147-.4.29-.6.434q-.5.359-1,.709c-.228.159-.457.318-.685.475q-.539.369-1.08.728-.422.281-.844.555-.564.367-1.129.724c-.241.152-.482.3-.723.451q-.459.284-.917.561c-.232.14-.465.283-.7.42q-.708.421-1.414.825c-.242.139-.484.274-.726.41q-.433.243-.865.482c-.252.138-.5.276-.754.412-.323.174-.644.345-.966.514q-.533.281-1.062.552c-.3.155-.6.309-.9.459q-.38.191-.758.377-.406.2-.808.394c-.24.116-.481.234-.719.347q-.658.312-1.307.61c-.249.114-.495.225-.741.336s-.5.224-.746.334-.493.218-.737.324c-.29.126-.576.248-.862.37q-.531.226-1.053.442c-.247.1-.494.2-.737.3l-.713.287c-.234.093-.465.185-.7.275q-.425.167-.843.328c-.323.124-.643.246-.959.364l-.654.242-.639.233-.626.225c-.293.1-.58.2-.865.3l-.741.253-.643.216-.553.182-.635.205-.624.2c-.262.082-.521.163-.773.24l-.473.143-.54.162-.438.129c-.278.081-.55.159-.811.233l-.357.1-.5.137-.366.1-.472.126-.411.108-.47.12-.289.072-.34.084M904,351.713c.007-.7.022-1.4.04-2.114,0-.127.006-.253.009-.38q.028-1.026.07-2.068c.006-.134.011-.268.017-.4q.045-1.075.1-2.162c0-.036,0-.073.006-.11q.059-1.062.13-2.137c.008-.125.016-.249.024-.374q.073-1.073.157-2.156c.011-.143.022-.286.034-.428q.088-1.1.185-2.211c.006-.071.013-.142.019-.213q.1-1.069.2-2.144c.011-.11.021-.219.032-.329q.109-1.1.228-2.211l.048-.441q.12-1.111.249-2.224c.01-.09.021-.179.031-.268q.126-1.079.259-2.158l.032-.265q.139-1.116.285-2.228.028-.213.056-.426.146-1.106.3-2.206c.013-.1.027-.2.041-.294q.15-1.079.3-2.15c.01-.065.019-.13.028-.195q.161-1.106.326-2.2l.059-.393q.164-1.079.331-2.146l.049-.309q.169-1.072.34-2.129l.014-.088q.174-1.071.351-2.123l.063-.373q.173-1.028.347-2.037l.049-.285q.365-2.107.729-4.113l.047-.261q.176-.965.35-1.9l.053-.286q.362-1.942.714-3.754l.034-.177q.171-.88.338-1.725l.047-.239c.113-.568.224-1.127.333-1.669v0c.111-.553.221-1.09.328-1.614l.029-.144q.156-.76.3-1.475l.037-.178c.1-.485.2-.957.3-1.41h0q.15-.709.29-1.362l.009-.042q.137-.637.263-1.218l.018-.082c.172-.791.329-1.5.468-2.128V344.04L904,353.7Zm0-70.959h9.412c-.192.829-.647,2.816-1.264,5.684l0,.018q-.132.612-.272,1.275v0c-.185.871-.381,1.809-.587,2.805l-.026.126q-.3,1.441-.617,3.039l-.045.224q-.157.788-.319,1.61c-.009.043-.017.087-.026.13q-.156.795-.315,1.62l-.032.164q-.163.843-.328,1.716l-.055.291q-.334,1.766-.674,3.639c-.021.114-.041.226-.062.341q-.166.918-.332,1.856l-.045.258q-.153.867-.306,1.752c-.018.1-.035.2-.053.3q-.164.954-.328,1.927-.032.192-.064.385-.161.965-.321,1.944l-.013.081q-.162.993-.32,2l-.073.461q-.155.991-.309,1.994c-.018.116-.035.232-.053.348q-.134.887-.266,1.781c-.022.152-.045.3-.067.456q-.145,1-.287,2-.035.25-.07.5-.129.923-.254,1.851c-.013.1-.026.191-.039.287q-.136,1.019-.266,2.043l-.069.544q-.129,1.022-.252,2.045l-.04.34q-.108.908-.21,1.815c-.02.177-.04.353-.06.53q-.112,1.008-.217,2.016c-.017.168-.034.335-.051.5q-.092.9-.179,1.8c-.012.124-.024.247-.036.371q-.1,1.013-.182,2.021c-.008.09-.017.18-.024.269Zm20.9-63.734q-.435-.058-.857-.111l-.13-.016q-.446-.055-.877-.1l-.072-.008c-4.5-.514-7.712-.594-8.747-.605V206.3a74.507,74.507,0,0,1,59.017,34.745c-.025-.032-.052-.062-.077-.094q-.737-.938-1.511-1.826c-.114-.131-.228-.259-.343-.388-.507-.573-1.022-1.135-1.549-1.678l-.078-.082c-.55-.564-1.113-1.108-1.681-1.641q-.188-.177-.377-.351c-.566-.521-1.138-1.03-1.72-1.52-.064-.054-.129-.105-.193-.158q-.815-.682-1.649-1.324c-.119-.092-.237-.186-.356-.276q-.892-.68-1.8-1.319c-.112-.079-.225-.155-.338-.233q-.836-.579-1.682-1.126c-.088-.057-.175-.116-.263-.172q-.93-.594-1.869-1.146l-.4-.233c-.628-.366-1.258-.722-1.889-1.063l-.021-.012c-.642-.346-1.285-.675-1.928-1l-.4-.2q-.946-.465-1.889-.9l-.222-.1q-.874-.4-1.743-.763l-.353-.15q-.929-.388-1.848-.745l-.348-.133q-.843-.323-1.673-.621l-.241-.088q-.9-.32-1.787-.611l-.4-.129c-.592-.192-1.181-.379-1.758-.553q-.64-.193-1.275-.374l-.427-.119c-.28-.079-.56-.157-.838-.232l-.5-.131c-.255-.067-.509-.135-.762-.2l-.508-.128-.74-.183-.5-.12q-.366-.087-.729-.17l-.495-.112q-.365-.082-.727-.159l-.469-.1c-.255-.054-.507-.106-.76-.157l-.411-.083c-.277-.055-.55-.108-.823-.16l-.331-.063q-.526-.1-1.042-.19l-.082-.015q-1.155-.2-2.252-.372l-.112-.017q-.487-.074-.961-.143l-.155-.022q-.448-.064-.884-.122l-.17-.022m54.592,34.573,0,0,0-.005a75.178,75.178,0,0,0-65.608-46.012.354.354,0,0,0-.371.354v10.6a.332.332,0,0,0,.011.055.341.341,0,0,0,.015.077.317.317,0,0,0,.025.04.347.347,0,0,0,.049.073s0,0,0,.006a.393.393,0,0,0,.07.049.329.329,0,0,0,.03.021.3.3,0,0,0,.089.022.327.327,0,0,0,.042.011,63.5,63.5,0,0,1,60.077,63.476,63.053,63.053,0,0,1-5.526,25.918c-.651,1.456-1.393,2.955-2.207,4.454-.93,1.712-1.918,3.354-2.936,4.879a63.882,63.882,0,0,1-49.035,28.2V280.4a.327.327,0,0,0-.009-.046.337.337,0,0,0-.009-.051.345.345,0,0,0-.045-.1c-.006-.008-.006-.018-.013-.026l-.007-.006a.356.356,0,0,0-.113-.091c-.008,0-.018,0-.027-.008a.351.351,0,0,0-.09-.028c-.008,0-.016,0-.024,0s-.011,0-.017,0H903.646a.354.354,0,0,0-.354.354v71.31q-.016,1.445,0,2.851v0s0,0,0,.006,0,0,0,.007a.349.349,0,0,0,.024.1c0,.007,0,.015.005.022s.007.01.01.016,0,.007,0,.01.01.008.013.014a.285.285,0,0,0,.02.029.291.291,0,0,0,.027.038.326.326,0,0,0,.035.026l.02.015c.01.006.017.014.027.019l.025.014.01.006h0a.3.3,0,0,0,.044.008.314.314,0,0,0,.058.016c2.368.214,4.568.318,6.727.318,1.092,0,2.248-.029,3.534-.09a74.9,74.9,0,0,0,65.612-103.547" transform="translate(0)" fill="#262626"/>
  </g>
</svg>
